<?xml version="1.0" encoding="UTF-8"?>
<svg version="1.1" xmlns="http://www.w3.org/2000/svg" width="512" height="512">
<path d="M0 0 C1.11158478 -0.00524185 2.22316956 -0.0104837 3.36843872 -0.0158844 C5.70639211 -0.02227236 8.04437777 -0.02100975 10.38232422 -0.01245117 C13.92865144 -0.00394621 17.47336279 -0.03274262 21.01953125 -0.06445312 C23.30468702 -0.06606573 25.58984561 -0.06548647 27.875 -0.0625 C28.91913055 -0.07373398 29.96326111 -0.08496796 31.03903198 -0.09654236 C44.98632315 0.03327151 55.71496624 5.3704552 65.8203125 14.74609375 C75.72293291 25.20923984 78.17424438 36.50830479 78.734375 50.38769531 C79.12925656 59.98255794 80.27077527 68.01565541 85.0703125 76.43359375 C85.5034375 77.47193359 85.5034375 77.47193359 85.9453125 78.53125 C87.3573804 80.91901759 88.54085098 81.36590438 91.0703125 82.43359375 C93.33759937 83.71493017 95.59588232 85.01084894 97.8515625 86.3125 C104.05722302 89.44810664 111.85277946 89.49134565 118.515625 87.8203125 C122.47586919 86.29662533 126.2176799 84.36228842 130.00390625 82.45703125 C130.70483398 82.10447266 131.40576172 81.75191406 132.12792969 81.38867188 C133.51469316 80.68543465 134.89714266 79.97360332 136.27441406 79.25195312 C147.19454837 73.61540444 160.02395876 72.30538381 172.03515625 75.2734375 C196.93807661 83.4459981 207.22152683 107.07484265 218.37890625 128.875 C224.00473381 140.71132542 224.65029792 152.91251366 221.1171875 165.51171875 C216.48128403 178.4507329 208.84825322 186.82454088 197.20703125 193.75390625 C186.85398453 199.93577755 180.4241065 204.78293828 176.0703125 216.43359375 C174.6537896 227.00810194 175.81929919 235.56163989 182.0703125 244.43359375 C186.33893077 249.67023201 192.77532152 252.79062899 198.56420898 256.1003418 C210.71652065 263.10905101 217.67451261 273.13720732 222.0703125 286.43359375 C225.52269246 303.23371023 220.84101447 317.5792673 212.31713867 331.90332031 C211.25488207 333.68851855 210.21470287 335.48517233 209.17773438 337.28515625 C205.13823627 344.24365206 200.83923591 350.95182306 196.0703125 357.43359375 C195.37808594 358.38105469 194.68585938 359.32851563 193.97265625 360.3046875 C186.02826533 369.19522765 174.38326838 374.00081614 162.66796875 374.80859375 C148.52823963 375.38289438 138.09104438 371.29377767 125.85522461 364.51977539 C125.16307861 364.13684326 124.47093262 363.75391113 123.7578125 363.359375 C123.14292969 363.01302002 122.52804687 362.66666504 121.89453125 362.30981445 C115.6720781 359.32100498 107.78775924 359.44398379 101.23828125 361.1875 C96.54308612 362.98251463 92.8765535 365.10313288 89.0703125 368.43359375 C88.4103125 368.43359375 87.7503125 368.43359375 87.0703125 368.43359375 C86.7815625 369.02011719 86.4928125 369.60664063 86.1953125 370.2109375 C85.51659975 371.55186651 84.81471225 372.88189263 84.0703125 374.1875 C79.8150301 381.88357714 79.08991189 389.71973947 78.78540039 398.37792969 C78.2075032 414.37111696 73.88926185 426.59490062 62.0078125 437.83984375 C51.78138135 446.25190808 41.16664723 448.90366952 28.140625 448.8671875 C26.47324783 448.87505028 26.47324783 448.87505028 24.77218628 448.8830719 C22.43423289 448.88945986 20.09624723 448.88819725 17.75830078 448.87963867 C14.21197356 448.87113371 10.66726221 448.89993012 7.12109375 448.93164062 C4.83593798 448.93325323 2.55077939 448.93267397 0.265625 448.9296875 C-0.77850555 448.94092148 -1.82263611 448.95215546 -2.89840698 448.96372986 C-16.84569815 448.83391599 -27.57434124 443.4967323 -37.6796875 434.12109375 C-47.58230791 423.65794766 -50.03361938 412.35888271 -50.59375 398.47949219 C-50.98863156 388.88462956 -52.13015027 380.85153209 -56.9296875 372.43359375 C-57.2184375 371.74136719 -57.5071875 371.04914063 -57.8046875 370.3359375 C-59.2167554 367.94816991 -60.40022598 367.50128312 -62.9296875 366.43359375 C-65.19697437 365.15225733 -67.45525732 363.85633856 -69.7109375 362.5546875 C-75.91659802 359.41908086 -83.71215446 359.37584185 -90.375 361.046875 C-94.32691751 362.56735852 -98.05721716 364.49486062 -101.828125 366.41015625 C-102.52454102 366.76271484 -103.22095703 367.11527344 -103.93847656 367.47851562 C-105.31310604 368.18010317 -106.68263236 368.89181412 -108.04589844 369.61523438 C-119.62782366 375.62324956 -133.1088947 376.34117713 -145.6796875 372.99609375 C-163.50323232 366.61620161 -171.63196886 353.20395584 -180.6171875 337.37109375 C-181.25462891 336.26443359 -181.89207031 335.15777344 -182.54882812 334.01757812 C-191.66461083 318.09082878 -197.91955518 305.08115577 -193.8046875 286.30859375 C-189.80567255 272.04795554 -181.56057208 262.55035618 -169.06640625 255.11328125 C-158.71335953 248.93140995 -152.2834815 244.08424922 -147.9296875 232.43359375 C-146.51347858 221.86142948 -147.67678629 213.30236191 -153.9296875 204.43359375 C-158.11765815 199.31868559 -164.11930735 196.56247011 -169.79907227 193.38916016 C-182.30288707 186.34895785 -189.42812539 176.04988905 -193.9296875 162.43359375 C-198.26071042 141.57341374 -189.23650401 125.80506337 -179.0546875 108.30859375 C-178.48105469 107.30183594 -177.90742188 106.29507813 -177.31640625 105.2578125 C-168.98313306 90.91121969 -160.03581612 80.62714701 -143.91015625 75.31640625 C-126.96438818 71.01641222 -112.43082881 76.20096671 -97.71435547 84.34741211 C-97.02229004 84.73034424 -96.33022461 85.11327637 -95.6171875 85.5078125 C-95.00230469 85.85416748 -94.38742188 86.20052246 -93.75390625 86.55737305 C-87.5314531 89.54618252 -79.64713424 89.42320371 -73.09765625 87.6796875 C-68.40246112 85.88467287 -64.7359285 83.76405462 -60.9296875 80.43359375 C-60.2696875 80.43359375 -59.6096875 80.43359375 -58.9296875 80.43359375 C-58.6409375 79.84707031 -58.3521875 79.26054688 -58.0546875 78.65625 C-57.37597475 77.31532099 -56.67408725 75.98529487 -55.9296875 74.6796875 C-51.6744051 66.98361036 -50.94928689 59.14744803 -50.64477539 50.48925781 C-50.0668782 34.49607054 -45.74863685 22.27228688 -33.8671875 11.02734375 C-23.64075635 2.61527942 -13.02602223 -0.03648202 0 0 Z M-43.9296875 169.43359375 C-60.11084025 186.27296288 -65.49920073 207.58794258 -65.19921875 230.33203125 C-64.6917269 246.6467691 -57.56285727 263.05173293 -46.9296875 275.43359375 C-46.43339844 276.07167969 -45.93710938 276.70976562 -45.42578125 277.3671875 C-32.24674524 293.65838141 -11.98363721 301.99703795 8.3828125 304.24609375 C30.06002727 305.50122802 51.17909116 298.0548566 67.49682617 283.84008789 C82.46069357 270.1299813 92.43337656 251.20808607 93.37890625 230.8203125 C93.99710659 209.57471544 89.19121933 189.87677173 75.0703125 173.43359375 C74.57402344 172.79550781 74.07773437 172.15742188 73.56640625 171.5 C60.38737024 155.20880609 40.12426221 146.87014955 19.7578125 144.62109375 C-4.60915265 143.21022001 -26.64096196 152.71016714 -43.9296875 169.43359375 Z " fill="#4A5462" transform="translate(241.9296875,31.56640625)"/>
</svg>
